<svg id="Layout" xmlns="http://www.w3.org/2000/svg" viewBox="0 0 526.9 600"><title>mix</title><polygon points="423.47 269.49 526.9 166.06 423.47 62.63 398.72 87.37 459.9 148.56 334.18 148.56 207.48 275.25 80.79 148.56 0 148.56 0 183.56 66.29 183.56 182.73 300 66.29 416.44 0 416.44 0 451.44 80.79 451.44 207.48 324.75 334.18 451.44 459.9 451.44 398.72 512.63 423.47 537.37 526.9 433.94 423.47 330.51 398.72 355.26 459.9 416.44 348.67 416.44 232.23 300 348.67 183.56 459.9 183.56 398.72 244.74 423.47 269.49"/></svg>