<?xml version="1.0" encoding="utf-8"?>
<!-- Generator: Adobe Illustrator 21.0.2, SVG Export Plug-In . SVG Version: 6.00 Build 0)  -->
<svg version="1.1" id="Layout" xmlns="http://www.w3.org/2000/svg" xmlns:xlink="http://www.w3.org/1999/xlink" x="0px" y="0px"
	 viewBox="0 0 539 600" style="enable-background:new 0 0 539 600;" xml:space="preserve">
<title>uE00A-busket-truck</title>
<path d="M517.6,462.6L539,209.3H113.4l-20.7-75.8l-73.1-45L0,120.3l60.6,37.3L81,232.3l44.3,205.3c-7.6,8.3-17.4,22.1-20.2,41.1
	c-3,21.2,3.6,42.6,19.6,63.6l5.6,7.3h35.9c10.1,29.9,42.5,46,72.4,35.9c16.9-5.7,30.2-19,35.9-35.9h100.4
	c10.1,29.9,42.5,46,72.4,35.9c16.9-5.7,30.2-19,35.9-35.9h24.8v-37.3h-24.8c-10.1-29.9-42.5-45.9-72.4-35.8
	c-16.9,5.7-30.1,19-35.8,35.8H274.5c-10.1-29.9-42.5-45.9-72.4-35.8c-16.9,5.7-30.1,19-35.8,35.8h-16.9
	c-15.2-25.1-4.4-41.9,3.5-49.7L517.6,462.6z M429,510.8c11.2,0,20.2,9,20.2,20.2c0,11.2-9,20.2-20.2,20.2c-11.2,0-20.2-9-20.2-20.2
	c0,0,0,0,0,0C408.8,519.8,417.8,510.8,429,510.8z M220.4,510.8c11.2,0,20.2,9,20.2,20.2c0,11.2-9,20.2-20.2,20.2
	c-11.2,0-20.2-9-20.2-20.2c0,0,0,0,0,0C200.2,519.8,209.2,510.8,220.4,510.8L220.4,510.8z M122.3,246.6h376.2l-15.1,178.7H160.8
	L122.3,246.6z"/>
</svg>
