<svg id="Layout" xmlns="http://www.w3.org/2000/svg" viewBox="0 0 388.55 600"><title>uE019-hand-watches</title><path d="M297.81,135.68V50h-35v68.22a194.26,194.26,0,0,0-139.42.9V50h-35v87.2a194.13,194.13,0,0,0,0,325.61V550h35V480.88a194.26,194.26,0,0,0,139.42.9V550h35V464.32a194.14,194.14,0,0,0,0-328.64ZM352.59,317.5A159.57,159.57,0,0,1,211.78,458.31V429.62h-35v28.69A159.57,159.57,0,0,1,36,317.5H64.66v-35H36A159.57,159.57,0,0,1,176.78,141.69v28.69h35V141.69A159.57,159.57,0,0,1,352.59,282.5H323.9v35Z"/><path d="M162,297c0,18.89,14.44,34.21,32.26,34.21s32.26-15.32,32.26-34.21-9.45-38.36-32.26-62.55C171.46,258.66,162,278.13,162,297Z"/></svg>