<svg id="Layout" xmlns="http://www.w3.org/2000/svg" viewBox="0 0 672.61 600"><title>uE013-dashboard</title><path d="M672.42,414.21A336.11,336.11,0,0,0,99.75,178.78,334.35,334.35,0,0,0,.18,414.21L0,431.89H234.4a104.45,104.45,0,0,0,203.81,0h234.4ZM406.66,396.89l-1,16.4a69.46,69.46,0,0,1-138.64,0l-1-16.4H35.88c10.8-156.19,142-280.46,300.42-280.46S625.93,240.69,636.72,396.89Z"/><path d="M336.3,256.66c-15.68,0-28.39,133.83-28.39,149.5a28.39,28.39,0,0,0,56.78,0C364.69,390.48,352,256.66,336.3,256.66Z"/><circle cx="235.49" cy="197.77" r="26.53" transform="translate(-41.13 63.41) rotate(-14.12)"/><circle cx="119.61" cy="321.34" r="26.53" transform="matrix(0.27, -0.96, 0.96, 0.27, -222.19, 348.44)"/><circle cx="555.33" cy="321.34" r="26.53" transform="translate(-61.61 145.16) rotate(-14.12)"/><circle cx="433.31" cy="197.77" r="26.53" transform="translate(124.51 560.42) rotate(-74.12)"/></svg>