<svg id="Layout" xmlns="http://www.w3.org/2000/svg" viewBox="0 0 455.65 600"><title>uE01F-loop</title><polygon points="79.1 466.22 79.1 431.22 35 431.22 35 168.78 267.02 168.78 220.62 215.18 245.37 239.93 334.02 151.28 245.37 62.63 220.62 87.37 267.03 133.78 17.5 133.78 0 151.28 0 448.72 17.5 466.22 79.1 466.22"/><polygon points="376.22 133.78 376.22 168.78 420.65 168.78 420.65 431.22 188.63 431.22 235.03 384.82 210.28 360.07 121.63 448.72 210.28 537.37 235.03 512.63 188.63 466.22 438.15 466.22 455.65 448.72 455.65 151.28 438.15 133.78 376.22 133.78"/></svg>