<svg id="Layout" xmlns="http://www.w3.org/2000/svg" viewBox="0 0 671.4 600"><title>uE018-group</title><path d="M657.4,373.81c-13.07-22.65-41.29-52.34-101.68-66.64a80.1,80.1,0,0,1,6.43-7.36,82.79,82.79,0,0,0,15.48-15.38,18,18,0,0,0,1.1-1.44l.22-.32c12.72-17.25,19.71-39.45,19.71-62.65,0-24.37-7.61-47.45-21.43-65-14.79-18.77-34.83-29.1-56.42-29.1s-41.64,10.34-56.42,29.1a97.15,97.15,0,0,0-15,27.37c-2.76-30.91-13.68-59.66-31.44-82.21C396.24,72.66,367,57.5,335.65,57.5s-60.59,15.16-82.28,42.7c-17.73,22.5-28.64,51.16-31.43,82A97.08,97.08,0,0,0,207,155c-14.79-18.77-34.83-29.1-56.42-29.1S109,136.27,94.18,155c-13.82,17.54-21.43,40.62-21.43,65,0,21.19,5.83,41.54,16.54,58.06v.06l.79,1.13q1.06,1.58,2.18,3.12l.5.71c.37.53.72,1,1,1.32a82.69,82.69,0,0,0,15.49,15.38,80.15,80.15,0,0,1,6.43,7.36c-60.39,14.3-88.61,44-101.68,66.64C-.91,399.65-.09,422.16.05,424.64L1,441.14H131.14q-3,4.49-5.68,9.13c-22.79,39.5-21.08,74.27-21,75.73l.95,16.5H565.89l.95-16.5c.08-1.46,1.79-36.23-21-75.73q-2.68-4.65-5.68-9.13H670.4l.95-16.5C671.49,422.16,672.31,399.65,657.4,373.81ZM491.87,176.7c8-10.17,18.29-15.77,28.93-15.77s20.92,5.6,28.93,15.77c9,11.4,13.92,26.78,13.92,43.33,0,16-4.72,31.09-13.3,42.43l-.56.75,0,0a47.23,47.23,0,0,1-9.42,9.16l-1.17.85-1,1c-6.58,6.66-13.54,14.62-17.37,23.46-3.83-8.83-10.79-16.8-17.37-23.46l-1-1-1.17-.85a47.16,47.16,0,0,1-9.47-9.23l-.53-.71c-8.57-11.34-13.29-26.41-13.29-42.43C477.94,203.48,482.89,188.09,491.87,176.7Zm-73.17,118a19,19,0,0,0,1.29-1.67l.31-.47a150.61,150.61,0,0,0,24.48-52.23,102.12,102.12,0,0,0,17.85,42.28l.22.32a18.08,18.08,0,0,0,1.12,1.47,82.69,82.69,0,0,0,15.49,15.38,80.09,80.09,0,0,1,6.43,7.36c-36.24,8.57-64.64,23.38-84.65,44.14q-8.77-2.37-17.92-4.41a21.17,21.17,0,0,1-6.72-3.09c.33-2,2.65-9.48,18.44-25.66A122,122,0,0,0,418.7,294.75ZM207.44,284.43a18.74,18.74,0,0,0,1.18-1.56l.13-.2a102.08,102.08,0,0,0,17.83-42.09,150.63,150.63,0,0,0,24.24,51.75l.52.76a18.55,18.55,0,0,0,1.27,1.65,122.07,122.07,0,0,0,23.66,23.4c15.8,16.18,18.11,23.61,18.44,25.66A21.17,21.17,0,0,1,288,346.9q-9.13,2-17.84,4.39c-20-20.75-48.4-35.56-84.63-44.12a80.19,80.19,0,0,1,6.43-7.36A82.78,82.78,0,0,0,207.44,284.43ZM107.74,220c0-16.55,4.94-31.94,13.92-43.33,8-10.17,18.29-15.77,28.93-15.77s20.92,5.6,28.93,15.77c9,11.39,13.92,26.78,13.92,43.33,0,16-4.72,31.1-13.29,42.43l-.57.75,0,0a47.22,47.22,0,0,1-9.42,9.16l-1.17.85-1,1c-6.58,6.66-13.54,14.62-17.37,23.46-3.83-8.83-10.79-16.8-17.37-23.46l-1-1L131,272.4a47.28,47.28,0,0,1-9.55-9.33l-.45-.61C112.47,251.12,107.74,236.05,107.74,220Zm19.7,120.35.65-.14.63-.19c12.5-3.75,18.77-10.3,21.88-16.44,3.11,6.14,9.38,12.69,21.88,16.44l.63.19.65.14c23.54,5.16,42.88,13.11,57.8,23.73l-.61.25q-1.85.75-3.67,1.52l-1.93.82q-6.74,2.9-13.15,6.05l-.5.24q-2.18,1.08-4.31,2.19l-.6.32a236.66,236.66,0,0,0-25.87,15.58,206.92,206.92,0,0,0-19.13,15.06H37.72C43.86,386.43,63.69,354.37,127.44,340.38ZM141,507.5a125.11,125.11,0,0,1,14.78-39.74c20.32-35.21,57.77-62,109.26-78.49l2.11-.67q13.87-4.33,29-7.67l.65-.14.63-.19c21.62-6.49,28.93-18.7,31.25-27.8,5.64-22.1-12.27-43.8-28.51-60.23l-1-1L298,290.7a86.65,86.65,0,0,1-17.72-17.35l-.58-.8c-15.15-20-23.5-46.51-23.5-74.54,0-28.95,8.75-56,24.64-76.15,14.92-18.93,34.38-29.36,54.79-29.36s39.88,10.43,54.79,29.36C406.33,142,415.08,169.06,415.08,198c0,28-8.34,54.5-23.5,74.54l-.57.75-.06.1a86.65,86.65,0,0,1-17.68,17.29l-1.17.85-1,1C354.85,309,336.94,330.7,342.58,352.8c2.32,9.1,9.63,21.31,31.25,27.8l.63.19.65.14q15.1,3.31,28.91,7.63l1.9.6c50.8,16.2,88,42.45,108.59,76.88a125.42,125.42,0,0,1,15.76,41.46ZM509.52,406.14a207,207,0,0,0-19.13-15.06c-2.69-1.88-5.47-3.69-8.29-5.48l-.07,0q-8.33-5.26-17.4-10l-.74-.39q-2.09-1.08-4.22-2.14l-.62-.3q-4.47-2.2-9.09-4.28l-.11-.05c-1.26-.56-2.53-1.11-3.81-1.66l-2-.86q-1.8-.76-3.63-1.5l-.6-.25c14.92-10.63,34.27-18.59,57.83-23.75l.65-.14.63-.19c12.5-3.75,18.77-10.3,21.88-16.44,3.11,6.14,9.38,12.69,21.88,16.44l.63.19.65.14c63.64,14,83.51,46,89.69,65.76Z"/></svg>