<svg id="Layout" xmlns="http://www.w3.org/2000/svg" viewBox="0 0 549.5 600"><title>uE02F-ticket</title><path d="M466.92,191.37a59.07,59.07,0,1,1-83.54-83.54l12.37-12.37-70.2-70.2L0,350.8,70.2,421l12.37-12.37a59.07,59.07,0,0,1,83.54,83.54l-12.37,12.37,70.2,70.2L549.5,249.2,479.29,179Zm-243,333.88L202.1,503.4A94.09,94.09,0,0,0,71.36,372.66L49.5,350.8,325.55,74.75l21.86,21.86A94.08,94.08,0,0,0,478.14,227.34L500,249.2Z"/><rect x="168.8" y="285.76" width="107.91" height="35" transform="translate(-149.19 246.33) rotate(-45)"/><rect x="206.14" y="313.75" width="153.07" height="35" transform="translate(-151.43 296.91) rotate(-45)"/></svg>