<svg id="Layout" xmlns="http://www.w3.org/2000/svg" viewBox="0 0 353.55 600"><title>uE020-map-point</title><path d="M176.78,150.25a76.53,76.53,0,1,0,76.53,76.53A76.53,76.53,0,0,0,176.78,150.25Zm0,118.05a41.53,41.53,0,1,1,41.53-41.53A41.57,41.57,0,0,1,176.78,268.3Z"/><path d="M353.55,226.78A176.78,176.78,0,0,0,0,226.78C0,324.41,51.78,425,176.78,550,301.77,425,353.55,324.41,353.55,226.78ZM72.32,361.51C47.21,314.95,35,270.87,35,226.78A141.78,141.78,0,0,1,277,126.53a140.85,140.85,0,0,1,41.53,100.25c0,44.1-12.21,88.17-37.32,134.73C258,404.68,223.64,450.13,176.78,499.8,129.91,450.13,95.6,404.68,72.32,361.51Z"/></svg>