<svg id="Layout" xmlns="http://www.w3.org/2000/svg" viewBox="0 0 509.99 600"><title>uE032-user</title><path d="M509.92,548.7c.09-1.6,2-39.67-23.07-83.06-14.48-25.1-35-47-61-65.14-31.61-22-71.42-38.44-118.37-48.81-6.69-2.09-8.63-4.12-9-4.55-.06-1,.21-9.27,21.21-30.75a133.66,133.66,0,0,0,26.07-25.76,18.66,18.66,0,0,0,1.32-1.71l.08-.12.27-.42c21.13-28.49,32.76-65.37,32.76-104,0-40.42-12.54-78.59-35.3-107.48-23.73-30.12-55.66-46.7-89.9-46.7s-66.17,16.59-89.9,46.7c-22.76,28.89-35.3,67.06-35.3,107.48,0,38.51,11.55,75.27,32.55,103.72l.56.82a18.59,18.59,0,0,0,1.33,1.72,133.66,133.66,0,0,0,26.07,25.76c21,21.48,21.27,29.75,21.21,30.75-.34.42-2.28,2.46-9,4.55-46.94,10.37-86.76,26.79-118.37,48.81-26,18.13-46.55,40-61,65.14C-1.89,509,0,547.1.06,548.7L1,565.19H509ZM36.44,530.19a140.72,140.72,0,0,1,18-48.81C82,435.19,136,402.11,210.73,385.72l.65-.14.63-.19c23.16-6.95,30.95-19.88,33.4-29.5,6-23.61-13.5-47.18-31.18-65.07l-1-1-1.17-.85A98.24,98.24,0,0,1,191.9,269.2l-.61-.83c-17.09-22.6-26.5-52.43-26.5-84,0-65.71,40.46-119.18,90.2-119.18s90.2,53.46,90.2,119.18c0,31.56-9.41,61.4-26.5,84l-.55.73-.08.13a98.28,98.28,0,0,1-20.12,19.71l-1.17.85-1,1c-17.68,17.89-37.21,41.46-31.18,65.07,2.46,9.63,10.25,22.56,33.4,29.5l.63.19.65.14C374,402.11,428,435.19,455.51,481.39a140.72,140.72,0,0,1,18,48.81Z"/></svg>