<?xml version="1.0" encoding="utf-8"?>
<!-- Generator: Adobe Illustrator 21.0.2, SVG Export Plug-In . SVG Version: 6.00 Build 0)  -->
<svg version="1.1" id="Layout" xmlns="http://www.w3.org/2000/svg" xmlns:xlink="http://www.w3.org/1999/xlink" x="0px" y="0px"
	 viewBox="0 0 515 600" style="enable-background:new 0 0 515 600;" xml:space="preserve">
<title>bell</title>
<g>
	<path d="M241,261.9c0-27.8-22.7-50.5-50.5-50.5c-27.8,0-50.5,22.7-50.5,50.5c0,27.8,22.7,50.5,50.5,50.5
		C218.4,312.4,241,289.8,241,261.9z M190.5,277.4c-8.5,0-15.5-7-15.5-15.5s7-15.5,15.5-15.5s15.5,7,15.5,15.5
		S199.1,277.4,190.5,277.4z"/>
	<path d="M298,261.9c0,27.8,22.7,50.5,50.5,50.5c27.8,0,50.5-22.7,50.5-50.5c0-27.8-22.7-50.5-50.5-50.5
		C320.7,211.4,298,234.1,298,261.9z M364,261.9c0,8.5-7,15.5-15.5,15.5s-15.5-7-15.5-15.5s7-15.5,15.5-15.5S364,253.4,364,261.9z"/>
	<path d="M273.9,340.1c-27.8,0-50.5,22.7-50.5,50.5c0,27.8,22.7,50.5,50.5,50.5c27.8,0,50.5-22.7,50.5-50.5
		C324.4,362.7,301.7,340.1,273.9,340.1z M273.9,406.1c-8.5,0-15.5-7-15.5-15.5s7-15.5,15.5-15.5s15.5,7,15.5,15.5
		S282.4,406.1,273.9,406.1z"/>
	<path d="M480,242.9v39h-20.7c-4.6-42.2-22.1-80.7-48.6-111.2l16.1-16.1l27.6,27.6l24.7-24.7l-80-79.9l-24.7,24.7l27.6,27.6
		l-16.5,16.5c-30.8-25.2-69.2-41.6-111.1-45.2V77.4h39v-35H200.5v35h39v23.8c-42,3.6-80.5,20-111.3,45.3l-16-16l27.6-27.6
		l-24.7-24.7l-80,79.9l24.7,24.7l27.6-27.6l15.6,15.6C76.5,201.7,59,240.4,54.6,283H35v-39H0V357h35v-39h19
		c3,43.7,19.8,83.6,46.1,115.4l-11.9,11.9l-27.6-27.6l-24.7,24.7l80,79.9l24.7-24.7L113,470l11.7-11.7
		c31.7,27.2,71.9,44.9,115.9,48.4v15.7h-39v35h113.1v-35h-39v-15.9c43.9-4,83.8-22,115.2-49.4l12.1,12.1l-27.6,27.6l24.7,24.7
		l80-79.9l-24.7-24.7l-27.6,27.6L415,431.9c25.8-31.8,42.3-71.6,45-115h20v39h35V242.9H480z M257,472.4
		c-92.9,0-168.5-75.6-168.5-168.5S164.1,135.4,257,135.4S425.5,211,425.5,303.9S349.9,472.4,257,472.4z"/>
</g>
</svg>
