<svg id="Layout" xmlns="http://www.w3.org/2000/svg" viewBox="0 0 539.04 600"><title>busket-truck</title><path d="M517.64,424.11,539,170.79H113.37L92.65,95,19.56,50,0,81.76l60.56,37.32L81,193.81l44.3,205.26c-7.64,8.25-17.44,22.13-20.17,41.09-3,21.24,3.55,42.65,19.61,63.65l5.59,7.32h35.9a57.13,57.13,0,0,0,108.27,0H374.85a57.12,57.12,0,0,0,108.26,0h24.77v-37.3H483.11a57.13,57.13,0,0,0-108.25,0H274.5a57.14,57.14,0,0,0-108.27,0H149.34c-15.24-25.12-4.44-41.85,3.46-49.72ZM429,472.29a20.21,20.21,0,1,1-20.2,20.2A20.21,20.21,0,0,1,429,472.29Zm-208.63,0a20.21,20.21,0,1,1-20.2,20.2A20.22,20.22,0,0,1,220.35,472.29Zm-98.11-264.2H498.46l-15.1,178.73H160.82Z"/></svg>