<svg id="Layout" xmlns="http://www.w3.org/2000/svg" viewBox="0 0 593.05 600"><title>compare</title><path d="M387.48,450.53V422.75a35.25,35.25,0,0,0-35.25-35.25H312.86V223a63.44,63.44,0,0,0,43.72-77.84L480.35,72.92V208.77h35V42.44A17.5,17.5,0,0,0,489,27.32l-150.68,88A63.46,63.46,0,0,0,233.55,176.5l-149.5,87.3a17.5,17.5,0,0,0-8.68,15.11v42h35V289L250.65,207a63.53,63.53,0,0,0,27.21,16V387.5H235.1a35.25,35.25,0,0,0-35.25,35.25v27.78a75.81,75.81,0,0,0-67,75.29V575H454.48V525.82A75.81,75.81,0,0,0,387.48,450.53ZM266.86,162a28.5,28.5,0,1,1,28.5,28.5A28.53,28.53,0,0,1,266.86,162Zm-32,260.75a.48.48,0,0,1,0-.09.4.4,0,0,1,.16-.16H352.32a.4.4,0,0,1,.16.16.45.45,0,0,1,0,.09v26.58H234.85ZM419.48,540H167.85V525.82A40.86,40.86,0,0,1,208.66,485h170a40.86,40.86,0,0,1,40.82,40.82Z"/><path d="M190,354.13l-30-18.06a78.79,78.79,0,0,1-131.57,5.29L0,361.77a113.77,113.77,0,0,0,190-7.64Z"/><path d="M563.07,224.12a78.79,78.79,0,0,1-131.57,5.29l-28.44,20.41a113.77,113.77,0,0,0,190-7.64Z"/></svg>