<svg id="Layout" xmlns="http://www.w3.org/2000/svg" viewBox="0 0 560.4 600"><title>heart</title><path d="M280.2,525s234-143.73,268-226.35S542.83,121.3,460.25,87.22A160.57,160.57,0,0,0,398.88,75,162.25,162.25,0,0,0,280.2,126.9,162.27,162.27,0,0,0,161.52,75a160.51,160.51,0,0,0-61.37,12.22C17.57,121.3-21.79,216,12.24,298.65S280.13,525,280.2,525ZM44.78,188.14A126.72,126.72,0,0,1,161.52,110a127.29,127.29,0,0,1,93,40.69l25.67,27.68,25.67-27.68a127.27,127.27,0,0,1,93-40.69A127,127,0,0,1,515.79,285.33c-5.21,12.67-28.61,50.48-133,127.72-41.06,30.39-80.55,56.41-102.64,70.57-22.08-14.16-61.56-40.17-102.65-70.59C73.21,335.81,49.82,298,44.61,285.33A126.31,126.31,0,0,1,44.78,188.14Z"/></svg>