<svg id="Layout" xmlns="http://www.w3.org/2000/svg" viewBox="0 0 474.75 600"><title>minimize</title><polygon points="161.9 399.16 161.9 500.53 196.9 500.53 196.9 338.35 34.72 338.35 34.72 373.35 138.21 373.35 0 511.56 24.75 536.31 161.9 399.16"/><polygon points="310.73 399.16 448.94 537.38 473.69 512.63 336.54 375.48 437.91 375.48 437.91 340.48 275.73 340.48 275.73 502.66 310.73 502.66 310.73 399.16"/><polygon points="440.03 226.65 336.54 226.65 474.75 88.44 450 63.69 312.85 200.84 312.85 99.47 277.85 99.47 277.85 261.65 440.03 261.65 440.03 226.65"/><polygon points="36.84 224.52 36.84 259.52 199.02 259.52 199.02 97.34 164.02 97.34 164.02 200.84 25.81 62.63 1.06 87.38 138.21 224.52 36.84 224.52"/></svg>