<svg id="Layout" xmlns="http://www.w3.org/2000/svg" viewBox="0 0 535 600"><title>settings</title><path d="M493.41,438.44l5.76-11.33L451.05,379q1.35-3.13,2.6-6.31h68.1l3.87-12.21a199.34,199.34,0,0,0-.5-122.33l-3.93-12.08h-68q-1.27-3.17-2.64-6.28l48.17-48.17-5.89-11.37a199.33,199.33,0,0,0-86.85-86.15l-11.33-5.76-48.12,48.12q-3.13-1.35-6.31-2.6V45.74L328,41.87a199.33,199.33,0,0,0-122.33.5L193.56,46.3v68q-3.17,1.27-6.28,2.64L139.1,68.82l-11.37,5.89a199.33,199.33,0,0,0-86.14,86.85l-5.76,11.33L83.95,221q-1.35,3.13-2.6,6.31H13.24L9.37,239.53a199.32,199.32,0,0,0,.5,122.33l3.93,12.08h68q1.27,3.17,2.65,6.28L36.32,428.39l5.89,11.37a199.35,199.35,0,0,0,86.85,86.15l11.33,5.76,48.12-48.12q3.13,1.35,6.3,2.6v68.11L207,558.13a199.34,199.34,0,0,0,122.33-.5l12.08-3.93v-68q3.17-1.27,6.28-2.65l48.17,48.17,11.37-5.89a199.34,199.34,0,0,0,86.15-86.85Zm1.88-177.37a164.1,164.1,0,0,1,.35,76.62H463.76q.88-4.58,1.54-9.23l0-.28q.3-2.14.56-4.29c0-.24.06-.49.08-.73.15-1.3.29-2.59.42-3.9,0-.42.07-.83.11-1.25.1-1.15.2-2.3.29-3.45,0-.61.08-1.23.12-1.84.06-1,.13-2,.17-2.93s.07-1.77.1-2.65.06-1.47.08-2.2q.06-2.46.06-4.93t-.06-5q-.06-2.41-.18-4.81v0a199.36,199.36,0,0,0-3.58-29.14ZM39.71,338.94a164.07,164.07,0,0,1-.35-76.62H71.24q-.88,4.6-1.55,9.26l0,.19q-.31,2.17-.57,4.36l-.08.68c-.15,1.31-.3,2.63-.42,3.94,0,.4-.07.8-.11,1.2-.1,1.16-.21,2.32-.29,3.49,0,.6-.08,1.21-.11,1.81-.06,1-.13,2-.18,3s-.07,1.75-.1,2.63-.06,1.48-.08,2.22q-.06,2.46-.06,4.93t.06,5a199.67,199.67,0,0,0,3.76,34ZM401,111.39a164.08,164.08,0,0,1,54.42,53.93l-22.54,22.54a199.68,199.68,0,0,0-24.11-29.18h0a198.43,198.43,0,0,0-30.27-24.8ZM228.56,72.21a164.66,164.66,0,0,1,76.62-.35v31.88q-4.7-.9-9.47-1.58h0q-2.31-.33-4.65-.6l-.28,0q-2.22-.26-4.46-.47l-.47,0q-2.15-.2-4.32-.35l-.58,0c-1.42-.09-2.84-.18-4.27-.24l-.5,0c-2.87-.12-5.75-.2-8.65-.2A200,200,0,0,0,228.56,104ZM78.89,166.46A164.08,164.08,0,0,1,132.83,112l22.54,22.54a199,199,0,0,0-54,54.38ZM134,488.61a164.08,164.08,0,0,1-54.42-53.93l22.54-22.54a199.06,199.06,0,0,0,54.38,54Zm172.48,39.18a164.69,164.69,0,0,1-76.62.35V496.26q7,1.34,14.18,2.19l.22,0q2.25.26,4.52.48l.41,0q2.18.2,4.38.36l.51,0q2.16.15,4.34.25l.44,0c2.89.12,5.78.2,8.7.2A200,200,0,0,0,306.44,496Zm39.84-83-.58.31a164,164,0,0,1-23.36,10.37l-3.82,1.24a165.24,165.24,0,0,1-40.71,7.82l-.89.06-2.09.1-2.07.08-1.51,0c-1.25,0-2.5,0-3.76,0s-2.53,0-3.79,0l-1.26,0-2.52-.1-1.48-.07-2.38-.15-3.09-.24-1.49-.13-2.44-.26-.93-.11a165,165,0,0,1-30.51-6.58l-.49-.16a163.73,163.73,0,0,1-21.37-8.57l-3-1.51q-5.76-2.93-11.24-6.27l-.62-.39c-1.23-.76-2.44-1.54-3.65-2.33a166.07,166.07,0,0,1-54.52-59.08l-.35-.64a164,164,0,0,1-10.33-23.27L110.81,351A165.23,165.23,0,0,1,103,310.3c0-.29,0-.59-.06-.88,0-.7-.07-1.4-.1-2.1s-.06-1.37-.08-2.06c0-.5,0-1,0-1.51,0-1.25,0-2.5,0-3.75s0-2.53,0-3.79c0-.42,0-.84,0-1.26q0-1.26.1-2.51c0-.5,0-1,.07-1.49,0-.79.1-1.57.15-2.35q.11-1.59.25-3.18c0-.47.08-.94.13-1.42.08-.83.17-1.65.26-2.48l.1-.88a165,165,0,0,1,6.59-30.54l.15-.46a163.71,163.71,0,0,1,8.55-21.34l1.54-3q2.93-5.76,6.27-11.24l.39-.63c.76-1.23,1.54-2.44,2.33-3.65a166.06,166.06,0,0,1,59.1-54.54l.6-.32a164.07,164.07,0,0,1,23.34-10.36l3.82-1.24a165.26,165.26,0,0,1,40.71-7.82l.89-.06,2.09-.1,2.07-.08,1.51,0c1.25,0,2.5,0,3.76,0s2.53,0,3.79,0l1.26,0,2.52.1,1.48.07,2.39.15,3.08.24,1.49.13,2.44.26.94.11a165,165,0,0,1,30.51,6.58l.5.16a163.75,163.75,0,0,1,21.38,8.58l2.95,1.5q5.75,2.93,11.22,6.26l.69.43c1.2.74,2.39,1.51,3.57,2.28a166.06,166.06,0,0,1,54.59,59.16l.27.5a164,164,0,0,1,10.39,23.39l1.24,3.82A165.24,165.24,0,0,1,432,289.69c0,.3,0,.59.06.89,0,.7.07,1.4.1,2.09s.06,1.38.08,2.07c0,.5,0,1,0,1.51,0,1.25,0,2.5,0,3.76s0,2.53,0,3.79c0,.42,0,.84,0,1.26q0,1.26-.1,2.52c0,.49,0,1-.07,1.48,0,.8-.1,1.59-.15,2.39q-.11,1.54-.24,3.08c0,.5-.09,1-.13,1.5-.08.81-.17,1.62-.26,2.44l-.11.94a165,165,0,0,1-6.58,30.51l-.16.49a163.71,163.71,0,0,1-8.59,21.41l-1.49,2.92q-2.93,5.75-6.27,11.23l-.41.65c-.75,1.22-1.53,2.42-2.31,3.62A166.07,166.07,0,0,1,346.27,444.77ZM431.9,464.4A164.73,164.73,0,0,1,402.17,488l-22.54-22.54a199.68,199.68,0,0,0,29.18-24.11h0A198.48,198.48,0,0,0,433.61,411l22.5,22.5A163.88,163.88,0,0,1,431.9,464.4Z"/><path d="M267.5,198.93A101.07,101.07,0,1,0,368.57,300,101.19,101.19,0,0,0,267.5,198.93Zm0,167.15A66.07,66.07,0,1,1,333.57,300,66.15,66.15,0,0,1,267.5,366.07Z"/></svg>