<svg id="Layout" xmlns="http://www.w3.org/2000/svg" viewBox="0 0 478.34 600"><title>soundtrack</title><path d="M406.55,445.45c-18.47,0-36,5.89-49.34,16.59-14.27,11.44-22.46,27.63-22.46,44.43s8.18,33,22.46,44.43c13.35,10.7,30.87,16.59,49.34,16.59s36-5.89,49.34-16.59c14.27-11.44,22.46-27.63,22.46-44.43,0-1.25-.06-2.49-.15-3.73V133.42L108.58,26.73V366.26a81.64,81.64,0,0,0-36.79-8.56c-18.47,0-36,5.89-49.34,16.59C8.18,385.73,0,401.92,0,418.72s8.18,33,22.46,44.43c13.35,10.7,30.87,16.59,49.34,16.59s36-5.89,49.34-16.59c13.9-11.14,22-26.8,22.42-43.12h0V210.54L443.19,297v157A81.67,81.67,0,0,0,406.55,445.45Zm-334.76-.7c-19.94,0-36.79-11.92-36.79-26s16.85-26,36.79-26,36.79,11.92,36.79,26S91.73,444.75,71.79,444.75Zm71.79-270.63V73.27l299.61,86.48V260.53ZM443.34,506.47c0,14.11-16.85,26-36.79,26s-36.79-11.92-36.79-26,16.85-26,36.79-26c18.89,0,35,10.69,36.64,23.81v2.21Z"/></svg>