<svg xmlns="http://www.w3.org/2000/svg" viewBox="0 0 33.83 25.33"><title>album</title><g id="Слой_2" data-name="Слой 2"><g id="Слой_1-2" data-name="Слой 1"><path d="M13.9,18.42A2.57,2.57,0,0,0,16.61,16c0-.07,0-.14,0-.2h0V10.9l9.32,3.48V16.9a3,3,0,0,0-.71-.09,2.57,2.57,0,0,0-2.71,2.4,2.57,2.57,0,0,0,2.71,2.4,2.57,2.57,0,0,0,2.71-2.4V9.75L14.61,4.94v8.78a3,3,0,0,0-.71-.09A2.57,2.57,0,0,0,11.18,16,2.57,2.57,0,0,0,13.9,18.42ZM25.21,19.6c-.43,0-.71-.24-.71-.4s.28-.4.71-.4.71.24.71.4S25.64,19.6,25.21,19.6Zm.71-8.45v1.09L16.61,8.77v-1Zm-12,4.47c.43,0,.71.24.71.4s-.28.4-.71.4-.71-.24-.71-.4S13.47,15.63,13.9,15.63Z"/><path d="M7.27,0H0V25.33H33.83V0Zm-2,23.33H2V2H5.27Zm26.56,0H7.27V2H31.83Z"/></g></g></svg>