<svg xmlns="http://www.w3.org/2000/svg" viewBox="0 0 28.9 26.81"><title>busket-truck</title><g id="Слой_2" data-name="Слой 2"><g id="Слой_1-2" data-name="Слой 1"><path d="M27.76,20.06,28.9,6.48H6.08L5,2.42,1,0,0,1.7l3.25,2,1.1,4,2.38,11a4.13,4.13,0,0,0-1.08,2.2,4.5,4.5,0,0,0,1.05,3.41l.3.39H8.91a3.06,3.06,0,0,0,5.81,0H20.1a3.06,3.06,0,0,0,5.8,0h1.33v-2H25.9a3.06,3.06,0,0,0-5.8,0H14.72a3.06,3.06,0,0,0-5.81,0H8a2,2,0,0,1,.19-2.67ZM23,22.64a1.08,1.08,0,1,1-1.08,1.08A1.08,1.08,0,0,1,23,22.64Zm-11.19,0a1.08,1.08,0,1,1-1.08,1.08A1.08,1.08,0,0,1,11.82,22.64ZM26.73,8.48l-.81,9.58H8.62L6.55,8.48Z"/></g></g></svg>