<svg xmlns="http://www.w3.org/2000/svg" viewBox="0 0 27.9 26.04"><title>compare</title><g id="Слой_2" data-name="Слой 2"><g id="Слой_1-2" data-name="Слой 1"><path d="M18.13,20.18V18.7a1.57,1.57,0,0,0-1.57-1.57H14.78V9.45a3,3,0,0,0,2-3.59L22.4,2.61V9h2V1.16a1.16,1.16,0,0,0-1.74-1l-7,4a3,3,0,0,0-1.89-.67,3,3,0,0,0-3,3.64L4.41,10.81a2,2,0,0,0-1,1.71v1.62h2v-1.6l6.38-3.67a3,3,0,0,0,1,.58v7.68H11A1.57,1.57,0,0,0,9.46,18.7v1.48A3.69,3.69,0,0,0,6.2,23.83V26H21.39V23.83A3.69,3.69,0,0,0,18.13,20.18ZM13.78,5.51a1.06,1.06,0,1,1-1.06,1.06A1.06,1.06,0,0,1,13.78,5.51ZM11.46,19.13h4.67v1H11.46ZM19.39,24H8.2v-.21a1.7,1.7,0,0,1,1.7-1.7h7.79a1.7,1.7,0,0,1,1.7,1.7Z"/><path d="M26.43,9a3.29,3.29,0,0,1-5.92.25l-1.46,1.46a5.28,5.28,0,0,0,8.85-.24Z"/><path d="M8.85,15.81,7.38,14.34a3.29,3.29,0,0,1-5.92.25L0,16a5.28,5.28,0,0,0,8.85-.24Z"/></g></g></svg>