<svg xmlns="http://www.w3.org/2000/svg" viewBox="0 0 32.42 20.94"><title>dashboard</title><g id="Слой_2" data-name="Слой 2"><g id="Слой_1-2" data-name="Слой 1"><path d="M32.41,16A16.2,16.2,0,0,0,0,16v1H11.22a5.15,5.15,0,0,0,10,0H32.42Zm-13-1-.06.94a3.15,3.15,0,0,1-6.28,0L13,15h-11a14.2,14.2,0,0,1,28.31,0Z"/><path d="M16.21,8.52c-.75,0-1.35,6.38-1.35,7.13a1.35,1.35,0,1,0,2.71,0C17.56,14.91,17,8.52,16.21,8.52Z"/><circle cx="11.4" cy="5.71" r="1.37" transform="translate(-1.05 2.95) rotate(-14.12)"/><circle cx="5.87" cy="11.61" r="1.37" transform="matrix(0.27, -0.96, 0.96, 0.27, -6.9, 14.08)"/><circle cx="26.66" cy="11.61" r="1.37" transform="translate(-2.03 6.85) rotate(-14.12)"/><circle cx="20.84" cy="5.71" r="1.37" transform="matrix(0.27, -0.96, 0.96, 0.27, 9.64, 24.19)"/></g></g></svg>