<svg xmlns="http://www.w3.org/2000/svg" viewBox="0 0 29.27 23.25"><title>group</title><g id="Слой_2" data-name="Слой 2"><g id="Слой_1-2" data-name="Слой 1"><path d="M22.81,13.68a4.76,4.76,0,0,1,.34-.38,4.71,4.71,0,0,0,.86-.85l.25-.25v-.1a6,6,0,0,0,.94-3.28c0-2.92-2-5.29-4.38-5.29a3.58,3.58,0,0,0-.62.08A5.55,5.55,0,0,0,15.28,0a5.64,5.64,0,0,0-5.07,4,3.73,3.73,0,0,0-1.76-.45C6,3.53,4.07,5.9,4.07,8.81A6,6,0,0,0,4.94,12l0,.12.36.36a4.59,4.59,0,0,0,.85.84,5,5,0,0,1,.34.38C1.14,15-.09,18.53,0,20.27l.05.94H4.29a5.45,5.45,0,0,0-.1,1.09l.05.94H26.32l.05-.94a5.44,5.44,0,0,0-.1-1.09h2.94l.05-.94C29.37,18.53,28.14,15,22.81,13.68ZM20.76,5.53h.07c1.29,0,2.38,1.51,2.38,3.29a4,4,0,0,1-.7,2.31l-.24.24v0a2.49,2.49,0,0,1-.35.31l-.13.11a4.7,4.7,0,0,0-1,1.28,4.7,4.7,0,0,0-1-1.28l-.13-.11a2.51,2.51,0,0,1-.34-.3l.18-.19v-.1a7.76,7.76,0,0,0,1.28-4.34,8.26,8.26,0,0,0-.1-1.26Zm-3.18,8.15-.15-.06a3.37,3.37,0,0,1,.56-.77,4.48,4.48,0,0,0,.51.45,4.76,4.76,0,0,1,.34.38l-.61.17C18,13.79,17.81,13.72,17.58,13.67Zm3.21,1,0-.06.06.1Zm-8.42-2.1a3.82,3.82,0,0,1,.78,1l-.11,0c-.5.11-1,.24-1.4.37a12.07,12.07,0,0,0-1.18-.35,4.6,4.6,0,0,1,.34-.39,4.68,4.68,0,0,0,.86-.85l.25-.25A5.67,5.67,0,0,0,12.36,12.61ZM6.07,8.81C6.07,7,7.16,5.53,8.45,5.53a1.91,1.91,0,0,1,1.28.54h0c0,.24,0,.49,0,.73a8.07,8.07,0,0,0,.07,1c0,.16.05.31.08.46s.06.33.1.49.12.41.18.62l.09.24a7.36,7.36,0,0,0,.31.72,3.44,3.44,0,0,1-.41.77l-.24.24v0a2.49,2.49,0,0,1-.35.31l-.13.11a4.7,4.7,0,0,0-1,1.28,4.72,4.72,0,0,0-1-1.28l-.13-.11a2.63,2.63,0,0,1-.49-.47l-.06-.08A3.92,3.92,0,0,1,6.07,8.81Zm1.16,6.74a1.92,1.92,0,0,0,1.22-.9,1.6,1.6,0,0,0,.44.5,9,9,0,0,0-4,4.06H2.17C2.52,18.11,3.66,16.34,7.23,15.55Zm-.93,5.7a5.59,5.59,0,0,1,.24-.78c0-.1.09-.21.13-.31l.12-.26h0a6.18,6.18,0,0,1,.47-.75l0,0a7,7,0,0,1,1.1-1.18l0,0a8.93,8.93,0,0,1,1.55-1l.36-.18.48-.23c.3-.13.62-.25,1-.37a16,16,0,0,1,1.74-.48,3,3,0,0,0,.74-.33l.36-.12-.13,0a1.77,1.77,0,0,0,.62-.94c.29-1.13-.59-2.2-1.39-3L13.61,11a4.11,4.11,0,0,1-.77-.74l-.06-.08a4.85,4.85,0,0,1-.28-.45l0,0a5.5,5.5,0,0,1-.32-.64l0-.09a5.69,5.69,0,0,1-.2-.6c0-.1,0-.21-.07-.31s-.07-.3-.09-.46a5.93,5.93,0,0,1,0-1.79V5.79C12.13,3.63,13.57,2,15.28,2a3.72,3.72,0,0,1,3.27,2.89l0,.17c0,.07,0,.15.05.22a6.15,6.15,0,0,1,.14.65,6.39,6.39,0,0,1,.07.89,5.68,5.68,0,0,1-1.07,3.42l0,.06A3.88,3.88,0,0,1,17,11l-.12.11c-.8.81-1.68,1.88-1.39,3a1.74,1.74,0,0,0,.21.48l-.94.29,2,.57.28.1.07,0,.86.22h0l.49.15.31.1.44.16.3.12.39.17.28.13.5.26.36.2.28.18.23.15.26.19.19.15.25.21.13.12a6.26,6.26,0,0,1,1.65,2.43l.09.25c0,.16.09.31.12.45Zm19.36-2a8.72,8.72,0,0,0-3.14-3.55c3.21.82,4.26,2.49,4.6,3.55Z"/></g></g></svg>