<svg xmlns="http://www.w3.org/2000/svg" viewBox="0 0 23.38 26.74"><title>hand-watches</title><g id="Слой_2" data-name="Слой 2"><g id="Слой_1-2" data-name="Слой 1"><path d="M23.38,13.6a11.65,11.65,0,0,0-3.95-8.74V0h-2V3.43a11.61,11.61,0,0,0-11.48,0V0h-2V4.87a11.64,11.64,0,0,0,0,17.47v4.41h2v-3a11.61,11.61,0,0,0,11.48,0v3h2V22.34A11.65,11.65,0,0,0,23.38,13.6Zm-21.33,1h1.8v-2H2.05A9.71,9.71,0,0,1,10.69,4v1.8h2V4a9.71,9.71,0,0,1,8.64,8.64h-1.8v2h1.8a9.71,9.71,0,0,1-8.64,8.64v-1.8h-2v1.8A9.71,9.71,0,0,1,2.05,14.6Z"/><path d="M12.7,15a1.08,1.08,0,0,0,.26-1.5c-.34-.49-3.65-4.37-4.13-4s2,4.77,2.37,5.26A1.08,1.08,0,0,0,12.7,15Z"/></g></g></svg>