<svg xmlns="http://www.w3.org/2000/svg" viewBox="0 0 25.33 20.31"><title>heart</title><g id="Слой_2" data-name="Слой 2"><g id="Слой_1-2" data-name="Слой 1"><path d="M18,2a5.26,5.26,0,0,1,2,.4,5.32,5.32,0,0,1,2.89,6.93c-.82,2-6.26,6.07-10.26,8.62-4-2.55-9.44-6.62-10.26-8.62A5.32,5.32,0,0,1,5.29,2.4a5.26,5.26,0,0,1,2-.4,5.34,5.34,0,0,1,3.9,1.7l1.47,1.58L14.13,3.7A5.34,5.34,0,0,1,18,2m0-2a7.34,7.34,0,0,0-5.37,2.34A7.34,7.34,0,0,0,7.3,0,7.31,7.31,0,0,0,.55,10.1c1.54,3.73,12.11,10.22,12.11,10.22h0S23.24,13.83,24.78,10.1A7.31,7.31,0,0,0,18,0Z"/></g></g></svg>