<svg xmlns="http://www.w3.org/2000/svg" viewBox="0 0 28.5 25.8"><title>loop</title><g id="Слой_2" data-name="Слой 2"><g id="Слой_1-2" data-name="Слой 1"><polygon points="2 5.51 17.03 5.51 14.97 7.63 16.41 9.02 20.78 4.51 16.41 0 14.97 1.39 17.03 3.51 1 3.51 0 4.51 0 21.29 1 22.29 6.04 22.29 6.04 20.29 2 20.29 2 5.51"/><polygon points="27.5 3.51 22.46 3.51 22.46 5.51 26.5 5.51 26.5 20.29 11.41 20.29 13.46 18.16 12.03 16.77 7.66 21.29 12.03 25.8 13.46 24.4 11.41 22.29 27.5 22.29 28.5 21.29 28.5 4.51 27.5 3.51"/></g></g></svg>