<svg xmlns="http://www.w3.org/2000/svg" viewBox="0 0 24.38 24.38"><title>maximize</title><g id="Слой_2" data-name="Слой 2"><g id="Слой_1-2" data-name="Слой 1"><polygon points="22.33 20.92 13.6 12.19 22.33 3.46 22.38 6.41 24.38 6.38 24.28 0.1 18 0 17.97 2 20.92 2.05 12.19 10.78 3.46 2.05 6.41 2 6.38 0 0.1 0.1 0 6.38 2 6.41 2.05 3.46 10.78 12.19 2.05 20.92 2 17.97 0 18 0.1 24.28 6.38 24.38 6.41 22.38 3.46 22.33 12.19 13.6 20.92 22.33 17.97 22.38 18 24.38 24.28 24.28 24.38 18 22.38 17.97 22.33 20.92"/></g></g></svg>