<svg xmlns="http://www.w3.org/2000/svg" viewBox="0 0 25.59 25.59"><title>minimize</title><g id="Слой_2" data-name="Слой 2"><g id="Слой_1-2" data-name="Слой 1"><polygon points="21.64 8.05 18.84 8.05 25.48 1.41 24.07 0 17.39 6.68 17.39 3.88 15.39 3.88 15.39 10.05 21.64 10.05 21.64 8.05"/><polygon points="3.88 8.21 3.88 10.21 10.05 10.21 10.05 3.95 8.05 3.95 8.05 6.75 1.41 0.11 0 1.53 6.68 8.21 3.88 8.21"/><polygon points="3.95 17.54 6.75 17.54 0.11 24.18 1.53 25.59 8.21 18.92 8.21 21.72 10.21 21.72 10.21 15.54 3.95 15.54 3.95 17.54"/><polygon points="25.59 24.07 18.92 17.39 21.72 17.39 21.72 15.39 15.54 15.39 15.54 21.64 17.54 21.64 17.54 18.84 24.18 25.48 25.59 24.07"/></g></g></svg>