<svg xmlns="http://www.w3.org/2000/svg" viewBox="0 0 25.61 22.2"><title>mix</title><g id="Слой_2" data-name="Слой 2"><g id="Слой_1-2" data-name="Слой 1"><polygon points="19.8 14.57 22.01 16.85 17.27 16.85 11.59 11.18 17.27 5.51 21.85 5.51 19.8 7.63 21.23 9.02 25.61 4.51 21.23 0 19.8 1.39 21.85 3.51 16.44 3.51 10.13 9.81 3.23 3.51 0 3.51 0 5.51 2.45 5.51 8.67 11.18 2.45 16.85 0 16.85 0 18.85 3.23 18.85 10.13 12.55 16.44 18.85 21.7 18.85 19.8 20.81 21.23 22.2 25.61 17.69 21.23 13.18 19.8 14.57"/></g></g></svg>