<svg xmlns="http://www.w3.org/2000/svg" viewBox="0 0 27.66 27.66"><title>settings</title><g id="Слой_2" data-name="Слой 2"><g id="Слой_1-2" data-name="Слой 1"><path d="M27.15,10.62l-.22-.69h-3.5l-.08-.2,2.48-2.48-.34-.65A10.33,10.33,0,0,0,21,2.14l-.65-.33L17.86,4.29l-.2-.07V.71L17,.48a10.37,10.37,0,0,0-6.34,0L9.93.73v3.5l-.2.08L7.26,1.84l-.65.34a10.33,10.33,0,0,0-4.47,4.5l-.33.65L4.29,9.8l-.07.2H.71l-.22.7A10.34,10.34,0,0,0,.51,17l.22.69h3.5l.08.2L1.84,20.4l.34.65a10.33,10.33,0,0,0,4.5,4.47l.65.33L9.8,23.37l.2.07V27l.7.22a10.32,10.32,0,0,0,6.34,0l.69-.22v-3.5l.2-.08,2.48,2.48.65-.34A10.32,10.32,0,0,0,25.52,21l.33-.65-2.47-2.47.07-.2H27l.22-.7a10.33,10.33,0,0,0,0-6.34ZM22.1,15l0,.25a8.25,8.25,0,0,1-1.41,3.41l-.17.23a8.21,8.21,0,0,1-.66.78l-.17.17a8.36,8.36,0,0,1-.74.63l-.26.19a8.11,8.11,0,0,1-3.42,1.41l-.18,0a8.38,8.38,0,0,1-2.38,0l-.22,0A7.78,7.78,0,0,1,10,21.25a8.46,8.46,0,0,1-1-.6l-.22-.17A8.22,8.22,0,0,1,8,19.81l-.17-.17a8.33,8.33,0,0,1-.63-.73L7,18.64A8.16,8.16,0,0,1,5.88,16.4a8.47,8.47,0,0,1-.28-1.17l0-.21a7.51,7.51,0,0,1,0-2.34l0-.25A8.25,8.25,0,0,1,7,9l.17-.23A8.27,8.27,0,0,1,7.85,8L8,7.84a8.34,8.34,0,0,1,.75-.64L9,7a8.39,8.39,0,0,1,.92-.57,8.09,8.09,0,0,1,2.5-.84l.2,0a8.37,8.37,0,0,1,2.36,0l.23,0a7.79,7.79,0,0,1,2.46.82,8.46,8.46,0,0,1,1,.6l.22.17a8.22,8.22,0,0,1,.78.67l.17.17a8.36,8.36,0,0,1,.63.73l.2.26a8.16,8.16,0,0,1,1.13,2.24,8.46,8.46,0,0,1,.28,1.18l0,.21a8.25,8.25,0,0,1,.09,1.19A8.35,8.35,0,0,1,22.1,15ZM20.7,4.28A8.33,8.33,0,0,1,23.35,6.9l-1,1a10.35,10.35,0,0,0-2.65-2.63Zm-8.77-.63V2.22a8.34,8.34,0,0,1,3.73,0V3.63l-.46-.06-.38-.05c-.28,0-.56,0-.84,0h-.16q-.5,0-1,.05l-.46.06ZM5.47,5.46A8.3,8.3,0,0,1,6.9,4.31l1,1A10.26,10.26,0,0,0,6.51,6.5h0A10.28,10.28,0,0,0,5.29,8l-1-1A8.29,8.29,0,0,1,5.47,5.46ZM3.65,15.73H2.22A8.33,8.33,0,0,1,2.2,12H3.64c0,.16,0,.32-.06.48s0,.24,0,.37c0,.33-.05.66-.05,1s0,.67.05,1c0,.17,0,.33.07.49S3.62,15.59,3.65,15.73ZM7,23.38a8.3,8.3,0,0,1-1.5-1.18,8.39,8.39,0,0,1-1.15-1.44l1-1A10.33,10.33,0,0,0,8,22.37Zm8.77.63v1.43a8.37,8.37,0,0,1-3.73,0V24l.44.06.41.05c.24,0,.47,0,.71,0h.29c.32,0,.65,0,1,0l.5-.07Zm6.47-1.82a8.33,8.33,0,0,1-1.44,1.15l-1-1a10.31,10.31,0,0,0,2.63-2.65l1,1A8.32,8.32,0,0,1,22.2,22.19Zm3.26-6.53H24c0-.16,0-.32.06-.48s0-.24,0-.37c0-.33.05-.66.05-1s0-.67-.05-1c0-.17,0-.33-.07-.49s0-.27-.06-.41h1.43a8.32,8.32,0,0,1,0,3.73Z"/><path d="M13.83,8.54a5.29,5.29,0,1,0,5.29,5.29A5.3,5.3,0,0,0,13.83,8.54Zm0,8.58a3.29,3.29,0,1,1,3.29-3.29A3.29,3.29,0,0,1,13.83,17.12Z"/></g></g></svg>