<svg xmlns="http://www.w3.org/2000/svg" viewBox="0 0 25.72 25.33"><title>soundtrack</title><g id="Слой_2" data-name="Слой 2"><g id="Слой_1-2" data-name="Слой 1"><path d="M5.51,0V14.11a4.16,4.16,0,0,0-1.75-.39A3.53,3.53,0,0,0,0,17a3.53,3.53,0,0,0,3.75,3.25A3.53,3.53,0,0,0,7.51,17a2.75,2.75,0,0,0,0-.33h0V6.75l16.21,5.64v6.84A4.17,4.17,0,0,0,22,18.84a3.53,3.53,0,0,0-3.75,3.25A3.53,3.53,0,0,0,22,25.33a3.53,3.53,0,0,0,3.75-3.25V7.3ZM3.75,18.21C2.8,18.21,2,17.64,2,17s.8-1.25,1.75-1.25,1.75.57,1.75,1.25S4.7,18.21,3.75,18.21ZM7.51,4.63V2.85L23.72,8.7v1.57ZM22,23.33c-1,0-1.75-.57-1.75-1.25S21,20.84,22,20.84s1.75.57,1.75,1.25S22.91,23.33,22,23.33Z"/></g></g></svg>