<svg xmlns="http://www.w3.org/2000/svg" viewBox="0 0 28.49 28.49"><title>ticket</title><g id="Слой_2" data-name="Слой 2"><g id="Слой_1-2" data-name="Слой 1"><path d="M24.75,7.89,24,8.6a3,3,0,0,1-4.14,0,2.93,2.93,0,0,1,0-4.14l.71-.71L16.85,0,0,16.85,3.75,20.6l.71-.71a3,3,0,0,1,4.14,0A2.93,2.93,0,0,1,8.6,24l-.71.71,3.75,3.75L28.49,11.64ZM10.65,24.67a4.93,4.93,0,0,0-6.83-6.83l-1-1,14-14,1,1a4.93,4.93,0,0,0,6.83,6.83l1,1-14,14Z"/><rect x="8.81" y="13.41" width="5.54" height="2" transform="translate(-6.8 12.41) rotate(-45)"/><rect x="10.73" y="14.85" width="7.86" height="2" transform="translate(-6.92 15) rotate(-45)"/></g></g></svg>