<svg id="Layout" xmlns="http://www.w3.org/2000/svg" viewBox="0 0 493.16 600"><title>uE034-volume</title><path d="M252,481.33a256.44,256.44,0,0,0,0-362.66L70.69,209.34V228.1H0V371.9H70.69v18.77ZM105.69,231,243.82,161.9a221.23,221.23,0,0,1,0,276.2L105.69,369ZM69.08,336.9H35V263.1H69.08Z"/><path d="M470,438.52a426.31,426.31,0,0,0,0-277A418.27,418.27,0,0,0,403.1,39.17L375.61,60.83c54,68.56,82.55,151.26,82.55,239.17s-28.55,170.61-82.55,239.17l27.49,21.66A418.28,418.28,0,0,0,470,438.52Z"/><path d="M387,419.26a340.54,340.54,0,0,0,0-238.52A335.15,335.15,0,0,0,324.78,77.31l-26.29,23.1a302.91,302.91,0,0,1,0,399.17l26.29,23.1A335.13,335.13,0,0,0,387,419.26Z"/></svg>