<svg id="Layout" xmlns="http://www.w3.org/2000/svg" viewBox="0 0 462.24 600"><title>bell</title><path d="M462.24,415.33c-33.86,0-53.3-27.45-53.3-61.3V252.82A177.82,177.82,0,0,0,231.12,75h0A177.82,177.82,0,0,0,53.3,252.82V354c0,33.86-19.45,61.3-53.3,61.3H0v75.33H157a74.15,74.15,0,0,0,148.28,0h157V415.33ZM231.12,528.83A39.2,39.2,0,0,1,192,490.67h78.28A39.2,39.2,0,0,1,231.12,528.83Zm196.12-73.17H35V443.3C67.25,429.39,88.3,396,88.3,354V252.82a142.82,142.82,0,0,1,285.64,0V354c0,42,21.05,75.36,53.3,89.27Z"/></svg>