<svg xmlns="http://www.w3.org/2000/svg" viewBox="0 0 18.4 24.73"><title>unlocked</title><g id="Слой_2" data-name="Слой 2"><g id="Слой_1-2" data-name="Слой 1"><path d="M3.82,10.17v-1C3.82,5.27,6.15,2.07,9,2h.33c2.28,0,4.28,2,5,5a9.18,9.18,0,0,1,.19,1.14l2-.21a11.1,11.1,0,0,0-.24-1.39C15.37,2.67,12.6.05,9.39,0H9C5,.09,1.82,4.1,1.82,9.14v1H0v6s0,.05,0,.08,0,.22,0,.33V17H0c.43,4.33,4.38,7.73,9.16,7.73s8.73-3.4,9.16-7.73l0-6.83ZM16.4,15h0l0,1.21c0,3.59-3.23,6.51-7.2,6.51S2,19.81,2,16.18L2,15H2V12.17H16.4Z"/></g></g></svg>