<svg xmlns="http://www.w3.org/2000/svg" viewBox="0 0 24.88 26.08"><title>user</title><g id="Слой_2" data-name="Слой 2"><g id="Слой_1-2" data-name="Слой 1"><path d="M15,15.49a1.3,1.3,0,0,1-.31-.13,3.61,3.61,0,0,1,1-1.3,6.39,6.39,0,0,0,1.25-1.24l.13-.17a8.6,8.6,0,0,0,1.58-5.07C18.63,3.4,15.85,0,12.44,0S6.25,3.4,6.25,7.58a8.58,8.58,0,0,0,1.61,5.1l.06.09a6.6,6.6,0,0,0,1.29,1.29,3.59,3.59,0,0,1,1,1.3,1,1,0,0,1-.27.12C-.3,17.72,0,25.07,0,25.14l.05.94H24.82l.05-.94C24.88,25.07,25.18,17.74,15,15.49ZM2.1,24.08c.34-1.7,1.83-5.24,8.32-6.67a2.23,2.23,0,0,0,1.72-1.53c.31-1.21-.66-2.39-1.54-3.28l-.13-.11a4.6,4.6,0,0,1-.91-.88l-.06-.08a6.56,6.56,0,0,1-1.24-4C8.25,4.5,10.13,2,12.44,2s4.19,2.5,4.19,5.58a6.56,6.56,0,0,1-1.24,4l-.06.08a4.56,4.56,0,0,1-.91.88l-.13.11c-.88.89-1.85,2.07-1.54,3.28a2.23,2.23,0,0,0,1.72,1.53l.07,0c6.46,1.42,7.92,4.95,8.25,6.65Z"/></g></g></svg>