<svg xmlns="http://www.w3.org/2000/svg" viewBox="0 0 28.12 30.69"><title>volume</title><g id="Слой_2" data-name="Слой 2"><g id="Слой_1-2" data-name="Слой 1"><path d="M12.93,4.17l-.59-.48L4.63,9.24v.86H0V21H4.63v.91L12.84,27l.56-.51a14.87,14.87,0,0,0,4.46-11A14.54,14.54,0,0,0,12.93,4.17ZM2,19V12.1H4.63V19Zm10.6,5.53-6-3.74V10.26l5.62-4a12.84,12.84,0,0,1,3.62,9.33A13.16,13.16,0,0,1,12.6,24.52Z"/><path d="M16.82,2.18l-1.21,1.6A14.69,14.69,0,0,1,21,15.58,15,15,0,0,1,16.12,27l1.29,1.53A17,17,0,0,0,23,15.58,16.68,16.68,0,0,0,16.82,2.18Z"/><path d="M22,0,20.68,1.49c3.41,3,5.44,8.31,5.44,14.12,0,5.46-1.84,10.57-4.94,13.66l1.41,1.41c3.46-3.46,5.52-9.09,5.52-15.07C28.12,9.25,25.83,3.41,22,0Z"/></g></g></svg>